<svg clip-rule="evenodd" fill-rule="evenodd" stroke-linejoin="round" stroke-miterlimit="2" viewBox="0 0 2500 2500" xmlns="http://www.w3.org/2000/svg"><path d="m0 1464.69c0-64.42 26.456-121.94 67.867-163.35l669.374-669.374 1130.469 1130.484-669.05 669.68c-42.56 41.41-100.08 67.87-163.34 67.87-63.271 0-120.794-26.46-162.204-67.87l-805.249-805.24c-6.057-5.9-11.764-12.11-17.099-18.63 5.335 6.51 11.042 12.73 17.099 18.62l390.767 390.77 832.136-832.14-553.529-553.54-669.374 669.37c-41.411 41.42-67.867 98.93-67.867 163.35z" fill="#34a853"/><path d="m458.634 2017.65-390.767-390.77c-42.563-41.4-67.867-98.92-67.867-162.19 0-64.42 26.456-121.93 67.867-163.35l669.374-669.37 553.529 553.54z" fill="#fbbc05"/><path d="m2397.92 78.364c48.72 42.167 79.76 104.361 79.76 173.236v.796 805.244c0 63.27-25.31 120.79-67.88 162.2l-542.09 542.61-576.93-576.94 563.77-563.776c32.46 39.244 81.53 64.253 136.44 64.253 97.73 0 176.98-79.238 176.98-176.976 0-76.147-48.1-141.065-115.58-166.034 18.52 6.847 35.89 16.808 51.32 29.593zm-544.77 541.652.23.293-.05-.067zm-20.69-32.241c5.71 11.462 12.62 22.218 20.58 32.103-8.05-9.984-14.93-20.754-20.58-32.103zm-.29-.58.18.344-.13-.252zm-.38-.787.03.061-.02-.037zm-14.82-44.982.02.102-.02-.125-.06-.3zm-2.91-28.214c.22 9.398 1.17 18.615 2.8 27.591-1.65-9.069-2.59-18.292-2.8-27.591zm-.01-.422v.164-.089zm237.74-170.032.42.155-.37-.138-.33-.12zm-.89-.324.24.087-.32-.115-.07-.023zm-.9-.319.15.053-.26-.092zm-.89-.314.08.028-.19-.065zm-.9-.31.02.007-.07-.023zm-.9-.304.03.012-.05-.017zm-.9-.3.05.017-.09-.031zm-.91-.295.04.012-.09-.029zm-.92-.296.02.008zm-.89-.28.06.019-.09-.026zm-.91-.28.1.032-.18-.058zm-.91-.275.1.03-.25-.076zm-.91-.271.17.052-.12-.038-.3-.086zm-.91-.266.27.08-.36-.105-.39-.11zm-49.06-6.888c16.49-.026 32.78 2.263 48.42 6.707-15.39-4.369-31.63-6.707-48.42-6.707zm-700.59-252.608c-1.21 1.062-2.4 2.136-3.58 3.222 1.18-1.087 2.37-2.162 3.58-3.222zm11.94-9.843c-3.45 2.652-6.82 5.402-10.12 8.247l-.52.449c3.46-3.002 7-5.901 10.64-8.696zm3.72-2.792c-.6.441-1.2.885-1.79 1.332.59-.448 1.19-.892 1.79-1.332zm2.92-2.117c-.19.133-.37.267-.56.4.19-.133.37-.267.56-.4zm13.15-8.69c-2.72 1.666-5.41 3.388-8.05 5.164l.57-.383c2.46-1.641 4.96-3.236 7.48-4.781zm1.85-1.121-.22.134.22-.134.53-.318zm2.38-1.406.59-.344c-.39.229-.79.46-1.19.693zm4.62-2.621c-.74.411-1.49.825-2.22 1.243l-.61.341c.94-.535 1.89-1.064 2.83-1.584zm5.7-3.04c-.21.106-.41.212-.62.318.21-.106.41-.212.62-.318zm7.97-3.917c-2.37 1.106-4.71 2.252-7.04 3.437 2.33-1.185 4.68-2.332 7.04-3.437zm4.57-2.073c-.21.094-.43.188-.64.282.21-.094.43-.188.64-.282zm33.77-11.814c-10.31 2.723-20.33 6.139-30.01 10.197 9.68-4.059 19.7-7.475 30.01-10.197zm864.61-7.666h-805.24c-18.41 0-36.32 2.141-53.5 6.198 17.18-4.057 35.09-6.198 53.5-6.198zm8.88.141.03.001-.11-.003zm-.73-.024.08.002-.21-.006zm-.74-.023.14.004-.26-.007zm-.73-.02.18.005-.28-.007zm-.73-.017.22.005-.29-.007zm-.73-.016.23.005-.26-.005zm-.74-.013.04.001-.3-.005zm-.73-.01.08.001-.33-.004zm-.74-.009.12.002-.32-.003zm-.73-.006.16.002-.33-.002zm-.74-.003.19.001-.31-.001zm-.53-.001h-.28.07z" fill="#4285f4"/><path d="m2398.23 78.054c-41.84-36.118-95.36-55.918-150.63-55.726h-805.24c-63.27 0-120.78 25.304-162.2 66.72l-542.919 542.918 553.529 553.544 563.78-563.777c-26.25-31.682-40.6-71.577-40.53-112.722 0-97.737 79.23-176.975 176.97-176.975 41.14-.064 81.04 14.282 112.72 40.534z" fill="#ea4335"/><circle cx="1290.45" cy="1248.26" fill="#4285f4" r="359.482"/><path d="m1780.23 1142.51h-478.11v205.13h275.2c-25.65 130.32-132.93 205.13-275.2 205.13-167.93 0-303.198-139.97-303.198-313.73s135.268-313.731 303.198-313.731c72.3 0 137.6 26.549 188.91 69.989l149.27-154.457c-90.96-82.052-207.58-132.732-338.18-132.732-284.54 0-513.1 236.509-513.1 530.931 0 294.43 228.56 530.93 513.1 530.93 256.54 0 489.77-193.07 489.77-530.93 0-31.37-4.66-65.16-11.66-96.53z" fill="#fff" transform="translate(-2 -2)"/></svg>