<svg clip-rule="evenodd" fill-rule="evenodd" stroke-linejoin="round" stroke-miterlimit="2" viewBox="0 0 1125 284" xmlns="http://www.w3.org/2000/svg"><g fill-rule="nonzero"><g fill="#205b81"><path d="m.249.021-.194-.395c-.014-.029-.027-.05-.039-.061s-.026-.016-.042-.016h-.004v-.028h.33v.028c-.016 0-.028.003-.035.008s-.01.012-.01.023c0 .005.001.011.003.017.002.007.005.014.009.023l.068.146.135-.263.143.263.057-.13c.005-.012.009-.022.011-.029s.003-.013.003-.018c0-.013-.005-.023-.014-.029-.009-.007-.023-.011-.042-.011v-.028h.175v.028c-.032.003-.059.028-.08.074l-.001.002-.183.396-.151-.281z" transform="matrix(191.666803308 0 0 191.66659925 18.61000381 216.46845)"/><path d="m182.864 154.781c0-2.87-.312-4.944-.936-6.223s-2.09-2.824-4.398-4.633l-10.201-8.236c7.424-2.371 15.442-5.147 24.052-8.329s17.781-6.738 27.514-10.669v77.771c0 4.804.858 8.251 2.574 10.341 1.716 2.091 4.57 3.198 8.563 3.323v5.334h-59.241v-5.334h.562c4.118 0 7.066-1.045 8.844-3.135s2.667-5.6 2.667-10.529z" transform="matrix(.99999844854 0 0 1.00000216225 -.00010915 2.9968)"/><path d="m.272-.099c0 .025.004.043.013.054s.024.017.045.017v.028h-.309v-.028h.003c.021 0 .037-.005.046-.016s.014-.029.014-.055v-.184c0-.016-.002-.027-.006-.035-.004-.007-.011-.015-.022-.022l-.061-.043c.04-.014.082-.032.125-.052s.088-.044.135-.07v.083c.019-.026.042-.045.068-.058s.056-.02.088-.02c.054 0 .093.014.12.041.026.027.039.068.039.124v.236c0 .026.004.044.014.055.009.011.024.016.046.016h.003v.028h-.251v-.33c0-.035-.004-.06-.013-.073-.009-.014-.023-.021-.044-.021-.019 0-.033.007-.041.021-.008.015-.012.039-.012.073z" transform="matrix(191.666803308 0 0 191.66659925 231.89717529 216.46845)"/><path d="m.072-.442h-.068l.252-.243v.206h.026c.022 0 .04-.001.055-.003.016-.003.029-.006.04-.011l-.015.051h-.106v.258c0 .043.005.074.016.094.012.021.029.031.052.031.005 0 .011-.001.017-.003.006-.001.013-.004.021-.007v.03c-.022.019-.046.034-.072.045-.026.01-.054.015-.082.015-.046 0-.081-.013-.105-.04-.024-.026-.036-.065-.036-.116v-.006z" transform="matrix(191.666803308 0 0 191.66659925 351.3265336 216.46845)"/><path d="m.483-.081c-.028.033-.059.058-.095.076-.036.017-.074.026-.115.026-.037 0-.072-.007-.104-.022-.033-.015-.061-.037-.084-.065-.019-.023-.034-.048-.043-.076-.01-.028-.015-.058-.015-.09 0-.033.005-.064.014-.093.009-.028.024-.055.043-.081.021-.028.049-.051.084-.069.036-.017.071-.026.108-.026.063 0 .114.019.152.058s.057.091.057.156h-.283c.002.058.021.106.057.144.036.039.079.058.129.058.019 0 .037-.003.052-.01.016-.007.03-.018.043-.032zm-.282-.241h.045c.044 0 .072-.004.082-.011.01-.008.015-.022.015-.044 0-.029-.005-.051-.016-.065-.01-.015-.026-.022-.047-.022-.027 0-.047.011-.06.034-.012.023-.019.059-.019.108z" transform="matrix(191.666803308 0 0 191.66659925 418.23266732 216.46845)"/><path d="m.259-.419c.016-.027.034-.048.053-.061.019-.014.039-.021.061-.021.024 0 .044.007.058.022.015.014.022.033.022.056 0 .021-.006.037-.018.049-.012.013-.029.019-.049.019-.018 0-.035-.007-.052-.022s-.028-.022-.032-.022c-.011 0-.019.007-.023.022-.005.014-.007.039-.007.076v.202c0 .025.005.043.015.055.011.011.027.016.051.016h.003v.028h-.32v-.028h.003c.021 0 .037-.005.046-.016s.014-.029.014-.055v-.184c0-.016-.002-.027-.006-.035-.004-.007-.011-.015-.022-.022l-.061-.043c.032-.011.069-.026.11-.045.042-.02.093-.045.154-.077z" transform="matrix(191.666803308 0 0 191.66659925 517.71517881 216.46845)"/><path d="m.286-.194c.025 0 .043-.01.054-.031s.017-.055.017-.103c0-.049-.006-.085-.017-.106-.011-.022-.029-.033-.054-.033s-.043.011-.055.031c-.011.021-.016.057-.016.107 0 .048.005.083.017.104.011.021.029.031.054.031zm-.165.258c-.001.003-.002.006-.003.009 0 .003-.001.006-.001.009 0 .024.015.045.045.063.029.017.066.026.111.026.043 0 .078-.008.104-.023s.039-.035.039-.059c0-.015-.005-.027-.016-.036s-.026-.014-.044-.014c-.011 0-.037.006-.078.017-.04.012-.075.017-.104.017-.008 0-.017-.001-.026-.002-.009-.002-.018-.004-.027-.007zm.003-.262c-.023-.015-.04-.033-.052-.055-.012-.021-.018-.045-.018-.071 0-.053.022-.095.067-.128s.103-.05.175-.05c.009 0 .018.001.027.002.009 0 .019.002.029.004.011-.028.027-.05.049-.066s.046-.024.074-.024c.02 0 .037.006.05.018.013.011.02.026.02.044 0 .015-.005.028-.015.038-.01.011-.023.016-.038.016-.013 0-.029-.006-.048-.017-.019-.01-.032-.016-.039-.016-.005 0-.009.001-.013.003-.003.002-.007.006-.009.01.044.015.077.036.1.064.024.028.035.06.035.098 0 .051-.022.092-.066.124-.045.032-.103.048-.175.048-.02 0-.039-.002-.058-.005-.02-.004-.039-.009-.059-.016-.015.003-.028.008-.037.016s-.013.018-.013.029c0 .013.005.024.015.032s.023.012.039.012c.015 0 .043-.008.082-.023l.005-.002c.032-.012.058-.021.078-.025.019-.005.039-.007.057-.007.049 0 .089.015.119.044.031.029.046.067.046.113 0 .06-.026.108-.076.144-.051.037-.119.055-.205.055-.07 0-.125-.01-.165-.029-.039-.019-.059-.045-.059-.079 0-.013.003-.024.008-.034s.013-.02.024-.028c-.017-.012-.031-.027-.04-.045-.009-.019-.014-.039-.014-.062 0-.031.008-.058.025-.081.017-.022.042-.039.075-.051z" transform="matrix(191.666803308 0 0 191.66659925 600.91384146 216.46845)"/><path d="m.259-.419c.016-.027.034-.048.053-.061.019-.014.039-.021.061-.021.024 0 .044.007.058.022.015.014.022.033.022.056 0 .021-.006.037-.018.049-.012.013-.029.019-.049.019-.018 0-.035-.007-.052-.022s-.028-.022-.032-.022c-.011 0-.019.007-.023.022-.005.014-.007.039-.007.076v.202c0 .025.005.043.015.055.011.011.027.016.051.016h.003v.028h-.32v-.028h.003c.021 0 .037-.005.046-.016s.014-.029.014-.055v-.184c0-.016-.002-.027-.006-.035-.004-.007-.011-.015-.022-.022l-.061-.043c.032-.011.069-.026.11-.045.042-.02.093-.045.154-.077z" transform="matrix(191.666803308 0 0 191.66659925 708.63375836 216.46845)"/><path d="m.483-.081c-.028.033-.059.058-.095.076-.036.017-.074.026-.115.026-.037 0-.072-.007-.104-.022-.033-.015-.061-.037-.084-.065-.019-.023-.034-.048-.043-.076-.01-.028-.015-.058-.015-.09 0-.033.005-.064.014-.093.009-.028.024-.055.043-.081.021-.028.049-.051.084-.069.036-.017.071-.026.108-.026.063 0 .114.019.152.058s.057.091.057.156h-.283c.002.058.021.106.057.144.036.039.079.058.129.058.019 0 .037-.003.052-.01.016-.007.03-.018.043-.032zm-.282-.241h.045c.044 0 .072-.004.082-.011.01-.008.015-.022.015-.044 0-.029-.005-.051-.016-.065-.01-.015-.026-.022-.047-.022-.027 0-.047.011-.06.034-.012.023-.019.059-.019.108z" transform="matrix(191.666803308 0 0 191.66659925 791.83242101 216.46845)"/><path d="m.483-.081c-.028.033-.059.058-.095.076-.036.017-.074.026-.115.026-.037 0-.072-.007-.104-.022-.033-.015-.061-.037-.084-.065-.019-.023-.034-.048-.043-.076-.01-.028-.015-.058-.015-.09 0-.033.005-.064.014-.093.009-.028.024-.055.043-.081.021-.028.049-.051.084-.069.036-.017.071-.026.108-.026.063 0 .114.019.152.058s.057.091.057.156h-.283c.002.058.021.106.057.144.036.039.079.058.129.058.019 0 .037-.003.052-.01.016-.007.03-.018.043-.032zm-.282-.241h.045c.044 0 .072-.004.082-.011.01-.008.015-.022.015-.044 0-.029-.005-.051-.016-.065-.01-.015-.026-.022-.047-.022-.027 0-.047.011-.06.034-.012.023-.019.059-.019.108z" transform="matrix(191.666803308 0 0 191.66659925 891.3149325 216.46845)"/><path d="m.272-.099c0 .025.004.043.013.054s.024.017.045.017v.028h-.309v-.028h.003c.021 0 .037-.005.046-.016s.014-.029.014-.055v-.184c0-.016-.002-.027-.006-.035-.004-.007-.011-.015-.022-.022l-.061-.043c.04-.014.082-.032.125-.052s.088-.044.135-.07v.083c.019-.026.042-.045.068-.058s.056-.02.088-.02c.054 0 .093.014.12.041.026.027.039.068.039.124v.236c0 .026.004.044.014.055.009.011.024.016.046.016h.003v.028h-.251v-.33c0-.035-.004-.06-.013-.073-.009-.014-.023-.021-.044-.021-.019 0-.033.007-.041.021-.008.015-.012.039-.012.073z" transform="matrix(191.666803308 0 0 191.66659925 990.79744399 216.46845)"/></g><path d="m0 10.083c3.433-1.845 5.001-5.319 6.225-7.501-2.055-1.429-4.984-3.867-8.878-4.026-3.336-.137-6.276 1.57-8.788 4.602-.791.955-2.585 3.279-3.773 4.374 1.547.466 4.169 1.74 5.298 2.253 3.585 1.629 6.975 1.879 9.916.298" fill="#68ad68" transform="matrix(2.85145 0 0 2.85145 243.986 47.538)"/><path d="m0-10.564c-2.624-2.105-5.913-2.179-8.059-2.415-.442 2.114-1.391 5.264-.204 8.411 1.017 2.696 3.365 4.456 6.621 5.429 1.026.307 3.442.98 4.713 1.554-.152-1.386.011-3.931.037-5.001.085-3.397-.86-6.175-3.108-7.978" fill="#68ad68" transform="matrix(2.85145 0 0 2.85145 191.849 62.1301)"/><path d="m-5.829-8.079c-3.392 0-6.142 2.75-6.143 6.143.001 3.392 2.751 6.142 6.143 6.143 3.392-.001 6.142-2.751 6.143-6.143-.001-3.393-2.751-6.142-6.143-6.143" fill="#d84e60" transform="matrix(-.898921 -2.70605 -2.70605 .898921 186.193 80.4315)"/></g></svg>